<svg fill="none" height="23" viewBox="0 0 34 23" width="34" xmlns="http://www.w3.org/2000/svg" xmlns:xlink="http://www.w3.org/1999/xlink"><linearGradient id="a" gradientUnits="userSpaceOnUse" x1="1.92667" x2="19.7024" y1="0" y2="29.0178"><stop offset=".259336" stop-color="#ffdb6e"/><stop offset="1" stop-color="#ffbc5e"/></linearGradient><path clip-rule="evenodd" d="m9.63091.144315 1.47569.893605c.2609.15802.3206.51064.1283.74744-2.15485 2.65356-4.11274 5.53093-4.11295 9.09714 2.94155 0 5.97295 2.4233 5.97295 5.5259 0 4.3339-3.48438 7.033-6.96857 6.5306-3.48419-.5023-5.54555-3.0141-5.972757-6.0283-.979698-6.91218 2.832797-13.13677 8.445877-16.759008.31277-.2018375.71305-.2001947 1.03146-.007377zm20.90519 0 1.4756.893605c.261.15802.3206.51064.1283.74744-2.1548 2.65356-4.1127 5.53093-4.1129 9.09714 2.9416 0 5.9729 2.4233 5.9729 5.5259 0 4.3339-3.4843 7.033-6.9685 6.5306-3.4842-.5023-5.5456-3.0141-5.9728-6.0283-.9797-6.91218 2.8328-13.13677 8.4459-16.759008.3128-.2018375.7131-.2001947 1.0315-.007377z" fill="url(#a)" fill-rule="evenodd"/></svg>